:SAMPLES-PER-SECOND 30
:FULLY-SPECIFIED
:DEGREES
265
root  -9.11117 39.9441 1.47329 -116.945 -85.0127 107.27
RightUpLeg  -15.1189 -2.96847 -9.4624
RightLeg  56.6223 -2.70185 -4.84155
RightFoot  6.92731 -0.4244 2.93284
RightToes  0.000482159 0.542163 -0.142577
Spine  11.8419 -0.508326 -1.8657
Spine1  7.5369 -0.12075 -3.36792
HEad  0.0920585 3.11466 -5.3836
LeftShoulder1  8.50985 -12.4042 -46.6683
LeftArm  -8.4645 20.3775 -26.5352
LeftForeArm  33.0211 -29.1621 -4.51688
LeftHand  -0.25398 0.0180481 5.50724
RightShoulder  5.04938 8.80969 35.0457
RightArm  -0.480547 -16.139 38.4389
RightForeArm  16.0416 14.2077 6.36261
RightHand  -0.898381 2.11477 -14.0745
LeftUpLeg  2.05559 3.88034 -8.73913
LeftLeg  11.5924 17.422 -2.40813
LeftFoot  -6.90204 -0.273668 8.13848
LeftToes  1.06246e-005 4.65855e-005 -8.18503e-006
266
root  -10.4367 40.0265 1.49246 -104.982 -85.5557 95.0743
RightUpLeg  -17.0011 -3.48906 -8.69593
RightLeg  48.2018 -3.97926 -5.06386
RightFoot  5.19104 -0.417576 3.13225
RightToes  0.000482159 0.542163 -0.142577
Spine  12.0653 -1.04612 -3.0469
Spine1  7.57803 -1.26556 -1.66565
HEad  0.042034 3.38623 -5.16973
LeftShoulder1  8.41233 -12.3376 -46.318
LeftArm  -8.49696 19.3628 -26.5246
LeftForeArm  35.102 -33.6754 -5.46574
LeftHand  -0.25398 0.0180481 5.50724
RightShoulder  4.8964 8.5474 34.6746
RightArm  4.27146 -18.8145 37.2968
RightForeArm  9.06261 17.997 5.62334
RightHand  -0.955167 2.57029 -14.1256
LeftUpLeg  5.07666 2.94354 -8.56246
LeftLeg  10.5281 17.0609 -2.84343
LeftFoot  -8.34939 -0.15478 7.7618
LeftToes  1.06246e-005 4.65855e-005 -8.18503e-006
267
root  -11.8288 39.909 1.4828 -94.562 -85.318 84.5572
RightUpLeg  -17.7783 -4.80203 -8.40295
RightLeg  37.5494 -5.59018 -4.8383
RightFoot  3.48957 -0.510647 4.09816
RightToes  0.000482159 0.542163 -0.142577
Spine  11.7795 -1.35066 -4.70582
Spine1  7.82455 -2.11267 -0.442969
HEad  0.041553 3.4384 -4.69643
LeftShoulder1  8.3188 -12.2455 -46.0635
LeftArm  -8.29289 18.069 -26.1505
LeftForeArm  37.0041 -37.5643 -6.35999
LeftHand  -0.25398 0.0180481 5.50724
RightShoulder  4.7918 8.37345 34.3919
RightArm  6.08179 -20.7674 36.3874
RightForeArm  6.12688 20.1157 5.06252
RightHand  -1.08292 3.22936 -14.807
LeftUpLeg  7.20018 3.15874 -8.82838
LeftLeg  11.4071 16.1988 -2.52249
LeftFoot  -11.0017 0.045726 6.69394
LeftToes  1.06246e-005 4.65855e-005 -8.18503e-006
268
root  -13.3055 39.7352 1.47251 -86.1152 -84.8101 76.3656
RightUpLeg  -17.859 -8.81572 -7.59869
RightLeg  25.1194 -5.4548 -3.26678
RightFoot  2.97364 -0.558859 4.60553
RightToes  0.000482159 0.542163 -0.142577
Spine  10.6382 -1.66632 -6.18128
Spine1  8.45306 -2.81634 0.754461
HEad  0.138159 3.28502 -4.17064
LeftShoulder1  8.26992 -12.1957 -45.9337
LeftArm  -8.27533 16.6165 -25.5992
LeftForeArm  38.5152 -40.4059 -7.06909
LeftHand  -0.25398 0.0180481 5.50724
RightShoulder  4.67823 8.21512 33.972
RightArm  5.26061 -21.9503 36.0531
RightForeArm  6.58158 20.1819 5.00143
RightHand  -1.17547 3.6078 -15.4006
LeftUpLeg  9.10991 3.41613 -9.17492
LeftLeg  12.2164 15.1945 -2.33877
LeftFoot  -13.4862 0.197757 6.1189
LeftToes  1.06246e-005 4.65855e-005 -8.18503e-006
269
root  -14.7919 39.6132 1.4712 -77.5792 -84.2274 68.2293
RightUpLeg  -17.047 -13.3674 -6.77847
RightLeg  11.4973 -4.14557 0.0814428
RightFoot  3.09971 -0.648187 5.27374
RightToes  0.000482159 0.542163 -0.142577
Spine  9.26717 -2.03752 -7.20306
Spine1  9.25083 -3.49789 2.11423
HEad  0.413361 2.92605 -3.67254
LeftShoulder1  8.22388 -12.1659 -45.7591
LeftArm  -8.29888 15.1349 -25.129
LeftForeArm  39.3729 -41.9685 -7.48559
LeftHand  -0.25398 0.0180481 5.50724
RightShoulder  4.56908 8.04465 33.6197
RightArm  2.45698 -22.6149 36.0295
RightForeArm  8.68048 18.5321 5.30075
RightHand  -1.16026 3.5156 -15.3517
LeftUpLeg  11.4178 3.48955 -9.38324
LeftLeg  11.7939 14.081 -2.58606
LeftFoot  -14.9783 0.289575 6.2594
LeftToes  1.06246e-005 4.65855e-005 -8.18503e-006
270
root  -16.3199 39.3909 1.44908 -71.8649 -83.4449 62.5214
RightUpLeg  -15.0408 -9.88587 -8.83804
RightLeg  -0.257469 -9.09848 4.68483
RightFoot  2.46004 -0.829389 7.0214
RightToes  0.000482159 0.542163 -0.142577
Spine  8.51422 -2.26779 -8.07547
Spine1  9.63059 -3.95842 2.9958
HEad  0.794604 2.35248 -3.18597
LeftShoulder1  8.16415 -12.131 -45.5199
LeftArm  -8.27444 13.6589 -24.8657
LeftForeArm  39.9281 -42.3451 -7.56916
LeftHand  -0.25398 0.0180481 5.50724
RightShoulder  4.53697 7.95016 33.6647
RightArm  -2.16008 -23.0468 35.8775
RightForeArm  11.6791 15.8586 5.73647
RightHand  -1.07523 3.13033 -14.8672
LeftUpLeg  13.9773 4.03978 -9.37066
LeftLeg  11.9974 12.6144 -2.76734
LeftFoot  -16.9722 0.37651 5.64799
LeftToes  1.06246e-005 4.65855e-005 -8.18503e-006
271
root  -17.9237 39.0573 1.41091 -71.7542 -83 61.9483
RightUpLeg  -14.3669 -9.65054 -8.62838
RightLeg  -4.77195 -9.58614 5.90033
RightFoot  0.54969 -0.876841 8.39008
RightToes  0.000482159 0.542163 -0.142577
Spine  8.34394 -2.24068 -8.31962
Spine1  9.7174 -3.98383 3.22704
HEad  0.948671 1.7378 -2.88438
LeftShoulder1  8.15205 -12.149 -45.396
LeftArm  -8.69821 12.4218 -24.8353
LeftForeArm  40.8229 -42.0208 -7.41487
LeftHand  -0.25398 0.0180481 5.50724
RightShoulder  4.59654 8.0122 33.9659
RightArm  -7.31289 -23.2561 35.6509
RightForeArm  14.4778 12.9378 5.8218
RightHand  -0.962114 2.52844 -14.3001
LeftUpLeg  16.7779 5.44754 -8.79169
LeftLeg  13.1861 10.7314 -2.71366
LeftFoot  -19.4793 0.399094 3.9555
LeftToes  1.06246e-005 4.65855e-005 -8.18503e-006
